<?xml version="1.0" encoding="UTF-8" standalone="no"?>
<!DOCTYPE svg PUBLIC "-//W3C//DTD SVG 1.1//EN"
 "http://www.w3.org/Graphics/SVG/1.1/DTD/svg11.dtd">
<!-- Generated by graphviz version 12.1.2 (20240928.0832)
 -->
<!-- Pages: 1 -->
<svg width="330pt" height="169pt"
 viewBox="0.00 0.00 329.50 169.21" xmlns="http://www.w3.org/2000/svg" xmlns:xlink="http://www.w3.org/1999/xlink">
<g id="graph0" class="graph" transform="scale(1 1) rotate(0) translate(4 165.21)">
<polygon fill="white" stroke="none" points="-4,4 -4,-165.21 325.5,-165.21 325.5,4 -4,4"/>
<!-- &#45;1 -->
<g id="node1" class="node">
<title>&#45;1</title>
<polygon fill="lightgray" stroke="black" points="23.5,-161.21 0,-161.21 0,-142.71 23.5,-142.71 23.5,-161.21"/>
<text text-anchor="middle" x="11.75" y="-148.66" font-family="Times New Roman,serif" font-size="9.00">&#45;1</text>
</g>
<!-- 0 -->
<g id="node11" class="node">
<title>0</title>
<ellipse fill="lightblue" stroke="black" cx="95.75" cy="-89.03" rx="14.5" ry="14.5"/>
<text text-anchor="middle" x="95.75" y="-85.73" font-family="Times New Roman,serif" font-size="9.00">0</text>
</g>
<!-- &#45;1&#45;&gt;0 -->
<g id="edge1" class="edge">
<title>&#45;1&#45;&gt;0</title>
<path fill="none" stroke="green" stroke-width="0.26" d="M23.79,-142.23C37.41,-132.35 59.82,-116.1 76.01,-104.35"/>
<polygon fill="green" stroke="green" stroke-width="0.26" points="77.91,-107.29 83.95,-98.59 73.8,-101.63 77.91,-107.29"/>
</g>
<!-- &#45;2 -->
<g id="node2" class="node">
<title>&#45;2</title>
<polygon fill="lightgray" stroke="black" points="242.5,-98.28 219,-98.28 219,-79.78 242.5,-79.78 242.5,-98.28"/>
<text text-anchor="middle" x="230.75" y="-85.73" font-family="Times New Roman,serif" font-size="9.00">&#45;2</text>
</g>
<!-- 32 -->
<g id="node13" class="node">
<title>32</title>
<ellipse fill="white" stroke="black" cx="230.75" cy="-17.68" rx="17.68" ry="17.68"/>
<text text-anchor="middle" x="230.75" y="-14.38" font-family="Times New Roman,serif" font-size="9.00">32</text>
</g>
<!-- &#45;2&#45;&gt;32 -->
<g id="edge7" class="edge">
<title>&#45;2&#45;&gt;32</title>
<path fill="none" stroke="red" stroke-width="0.31" d="M230.75,-79.53C230.75,-71.22 230.75,-58.12 230.75,-46.2"/>
<polygon fill="red" stroke="red" stroke-width="0.31" points="234.25,-46.22 230.75,-36.22 227.25,-46.22 234.25,-46.22"/>
</g>
<!-- &#45;3 -->
<g id="node3" class="node">
<title>&#45;3</title>
<polygon fill="lightgray" stroke="black" points="195.5,-161.21 172,-161.21 172,-142.71 195.5,-142.71 195.5,-161.21"/>
<text text-anchor="middle" x="183.75" y="-148.66" font-family="Times New Roman,serif" font-size="9.00">&#45;3</text>
</g>
<!-- &#45;3&#45;&gt;0 -->
<g id="edge2" class="edge">
<title>&#45;3&#45;&gt;0</title>
<path fill="none" stroke="green" stroke-width="0.27" d="M171.51,-142.49C157.04,-132.47 132.73,-115.64 115.56,-103.75"/>
<polygon fill="green" stroke="green" stroke-width="0.27" points="117.87,-101.09 107.65,-98.28 113.88,-106.85 117.87,-101.09"/>
</g>
<!-- 81 -->
<g id="node12" class="node">
<title>81</title>
<ellipse fill="white" stroke="black" cx="183.75" cy="-89.03" rx="17.68" ry="17.68"/>
<text text-anchor="middle" x="183.75" y="-85.73" font-family="Times New Roman,serif" font-size="9.00">81</text>
</g>
<!-- &#45;3&#45;&gt;81 -->
<g id="edge9" class="edge">
<title>&#45;3&#45;&gt;81</title>
<path fill="none" stroke="green" stroke-width="0.44" d="M183.75,-142.23C183.75,-135.68 183.75,-126.33 183.75,-117.35"/>
<polygon fill="green" stroke="green" stroke-width="0.44" points="187.25,-117.47 183.75,-107.47 180.25,-117.47 187.25,-117.47"/>
</g>
<!-- &#45;4 -->
<g id="node4" class="node">
<title>&#45;4</title>
<polygon fill="lightgray" stroke="black" points="237.5,-161.21 214,-161.21 214,-142.71 237.5,-142.71 237.5,-161.21"/>
<text text-anchor="middle" x="225.75" y="-148.66" font-family="Times New Roman,serif" font-size="9.00">&#45;4</text>
</g>
<!-- &#45;5 -->
<g id="node5" class="node">
<title>&#45;5</title>
<polygon fill="lightgray" stroke="black" points="65.5,-161.21 42,-161.21 42,-142.71 65.5,-142.71 65.5,-161.21"/>
<text text-anchor="middle" x="53.75" y="-148.66" font-family="Times New Roman,serif" font-size="9.00">&#45;5</text>
</g>
<!-- &#45;5&#45;&gt;0 -->
<g id="edge6" class="edge">
<title>&#45;5&#45;&gt;0</title>
<path fill="none" stroke="red" stroke-width="0.13" d="M59.77,-142.23C65.57,-133.82 74.55,-120.79 82.08,-109.86"/>
<polygon fill="red" stroke="red" stroke-width="0.13" points="84.83,-112.04 87.62,-101.82 79.06,-108.07 84.83,-112.04"/>
</g>
<!-- &#45;6 -->
<g id="node6" class="node">
<title>&#45;6</title>
<polygon fill="lightgray" stroke="black" points="284.5,-98.28 261,-98.28 261,-79.78 284.5,-79.78 284.5,-98.28"/>
<text text-anchor="middle" x="272.75" y="-85.73" font-family="Times New Roman,serif" font-size="9.00">&#45;6</text>
</g>
<!-- &#45;6&#45;&gt;32 -->
<g id="edge5" class="edge">
<title>&#45;6&#45;&gt;32</title>
<path fill="none" stroke="red" stroke-width="0.25" stroke-dasharray="1,5" d="M267.6,-79.53C261.99,-70.27 252.79,-55.07 244.98,-42.17"/>
<polygon fill="red" stroke="red" stroke-width="0.25" points="247.98,-40.38 239.81,-33.64 242,-44.01 247.98,-40.38"/>
</g>
<!-- &#45;7 -->
<g id="node7" class="node">
<title>&#45;7</title>
<polygon fill="lightgray" stroke="black" points="279.5,-161.21 256,-161.21 256,-142.71 279.5,-142.71 279.5,-161.21"/>
<text text-anchor="middle" x="267.75" y="-148.66" font-family="Times New Roman,serif" font-size="9.00">&#45;7</text>
</g>
<!-- &#45;8 -->
<g id="node8" class="node">
<title>&#45;8</title>
<polygon fill="lightgray" stroke="black" points="107.5,-161.21 84,-161.21 84,-142.71 107.5,-142.71 107.5,-161.21"/>
<text text-anchor="middle" x="95.75" y="-148.66" font-family="Times New Roman,serif" font-size="9.00">&#45;8</text>
</g>
<!-- &#45;8&#45;&gt;0 -->
<g id="edge3" class="edge">
<title>&#45;8&#45;&gt;0</title>
<path fill="none" stroke="red" stroke-width="0.58" stroke-dasharray="1,5" d="M95.75,-142.23C95.75,-135.04 95.75,-124.48 95.75,-114.74"/>
<polygon fill="red" stroke="red" stroke-width="0.58" points="99.25,-114.8 95.75,-104.8 92.25,-114.8 99.25,-114.8"/>
</g>
<!-- &#45;9 -->
<g id="node9" class="node">
<title>&#45;9</title>
<polygon fill="lightgray" stroke="black" points="321.5,-161.21 298,-161.21 298,-142.71 321.5,-142.71 321.5,-161.21"/>
<text text-anchor="middle" x="309.75" y="-148.66" font-family="Times New Roman,serif" font-size="9.00">&#45;9</text>
</g>
<!-- &#45;10 -->
<g id="node10" class="node">
<title>&#45;10</title>
<polygon fill="lightgray" stroke="black" points="153.75,-161.21 125.75,-161.21 125.75,-142.71 153.75,-142.71 153.75,-161.21"/>
<text text-anchor="middle" x="139.75" y="-148.66" font-family="Times New Roman,serif" font-size="9.00">&#45;10</text>
</g>
<!-- &#45;10&#45;&gt;0 -->
<g id="edge4" class="edge">
<title>&#45;10&#45;&gt;0</title>
<path fill="none" stroke="green" stroke-width="0.68" d="M133.45,-142.23C127.42,-133.88 118.11,-120.99 110.25,-110.11"/>
<polygon fill="green" stroke="green" stroke-width="0.68" points="113.13,-108.13 104.44,-102.07 107.46,-112.22 113.13,-108.13"/>
</g>
<!-- 81&#45;&gt;32 -->
<g id="edge8" class="edge">
<title>81&#45;&gt;32</title>
<path fill="none" stroke="green" stroke-width="0.12" d="M193.26,-74C199.7,-64.5 208.33,-51.76 215.69,-40.9"/>
<polygon fill="green" stroke="green" stroke-width="0.12" points="218.44,-43.08 221.15,-32.84 212.65,-39.15 218.44,-43.08"/>
</g>
</g>
</svg>
