<?xml version="1.0" encoding="UTF-8" standalone="no"?>
<!DOCTYPE svg PUBLIC "-//W3C//DTD SVG 1.1//EN"
 "http://www.w3.org/Graphics/SVG/1.1/DTD/svg11.dtd">
<!-- Generated by graphviz version 12.1.2 (20240928.0832)
 -->
<!-- Pages: 1 -->
<svg width="274pt" height="163pt"
 viewBox="0.00 0.00 273.75 162.85" xmlns="http://www.w3.org/2000/svg" xmlns:xlink="http://www.w3.org/1999/xlink">
<g id="graph0" class="graph" transform="scale(1 1) rotate(0) translate(4 158.85)">
<polygon fill="white" stroke="none" points="-4,4 -4,-158.85 269.75,-158.85 269.75,4 -4,4"/>
<!-- &#45;1 -->
<g id="node1" class="node">
<title>&#45;1</title>
<polygon fill="lightgray" stroke="black" points="23.5,-154.85 0,-154.85 0,-136.35 23.5,-136.35 23.5,-154.85"/>
<text text-anchor="middle" x="11.75" y="-142.3" font-family="Times New Roman,serif" font-size="9.00">&#45;1</text>
</g>
<!-- &#45;2 -->
<g id="node2" class="node">
<title>&#45;2</title>
<polygon fill="lightgray" stroke="black" points="65.5,-154.85 42,-154.85 42,-136.35 65.5,-136.35 65.5,-154.85"/>
<text text-anchor="middle" x="53.75" y="-142.3" font-family="Times New Roman,serif" font-size="9.00">&#45;2</text>
</g>
<!-- 0 -->
<g id="node11" class="node">
<title>0</title>
<ellipse fill="lightblue" stroke="black" cx="144.75" cy="-14.5" rx="14.5" ry="14.5"/>
<text text-anchor="middle" x="144.75" y="-11.2" font-family="Times New Roman,serif" font-size="9.00">0</text>
</g>
<!-- &#45;2&#45;&gt;0 -->
<g id="edge1" class="edge">
<title>&#45;2&#45;&gt;0</title>
<path fill="none" stroke="green" stroke-width="0.37" stroke-dasharray="1,5" d="M50.37,-135.93C44.92,-120.43 36.11,-87.47 49.75,-64.99 64.99,-39.87 97.6,-26.91 120.33,-20.66"/>
<polygon fill="green" stroke="green" stroke-width="0.37" points="120.88,-24.13 129.74,-18.31 119.19,-17.34 120.88,-24.13"/>
</g>
<!-- 37 -->
<g id="node12" class="node">
<title>37</title>
<ellipse fill="white" stroke="black" cx="76.75" cy="-82.67" rx="17.68" ry="17.68"/>
<text text-anchor="middle" x="76.75" y="-79.37" font-family="Times New Roman,serif" font-size="9.00">37</text>
</g>
<!-- &#45;2&#45;&gt;37 -->
<g id="edge6" class="edge">
<title>&#45;2&#45;&gt;37</title>
<path fill="none" stroke="green" stroke-width="0.23" d="M57.05,-135.87C59.7,-128.83 63.57,-118.58 67.18,-109.01"/>
<polygon fill="green" stroke="green" stroke-width="0.23" points="70.41,-110.37 70.67,-99.78 63.86,-107.9 70.41,-110.37"/>
</g>
<!-- &#45;3 -->
<g id="node3" class="node">
<title>&#45;3</title>
<polygon fill="lightgray" stroke="black" points="135.5,-91.92 112,-91.92 112,-73.42 135.5,-73.42 135.5,-91.92"/>
<text text-anchor="middle" x="123.75" y="-79.37" font-family="Times New Roman,serif" font-size="9.00">&#45;3</text>
</g>
<!-- &#45;3&#45;&gt;0 -->
<g id="edge2" class="edge">
<title>&#45;3&#45;&gt;0</title>
<path fill="none" stroke="red" stroke-width="0.13" d="M126.5,-73.02C129.31,-64.15 133.8,-49.99 137.63,-37.94"/>
<polygon fill="red" stroke="red" stroke-width="0.13" points="140.88,-39.26 140.57,-28.67 134.21,-37.14 140.88,-39.26"/>
</g>
<!-- &#45;4 -->
<g id="node4" class="node">
<title>&#45;4</title>
<polygon fill="lightgray" stroke="black" points="107.5,-154.85 84,-154.85 84,-136.35 107.5,-136.35 107.5,-154.85"/>
<text text-anchor="middle" x="95.75" y="-142.3" font-family="Times New Roman,serif" font-size="9.00">&#45;4</text>
</g>
<!-- &#45;5 -->
<g id="node5" class="node">
<title>&#45;5</title>
<polygon fill="lightgray" stroke="black" points="177.5,-91.92 154,-91.92 154,-73.42 177.5,-73.42 177.5,-91.92"/>
<text text-anchor="middle" x="165.75" y="-79.37" font-family="Times New Roman,serif" font-size="9.00">&#45;5</text>
</g>
<!-- &#45;5&#45;&gt;0 -->
<g id="edge3" class="edge">
<title>&#45;5&#45;&gt;0</title>
<path fill="none" stroke="red" stroke-width="0.31" stroke-dasharray="1,5" d="M163,-73.02C160.22,-64.24 155.79,-50.27 151.99,-38.3"/>
<polygon fill="red" stroke="red" stroke-width="0.31" points="155.37,-37.39 149.01,-28.92 148.7,-39.51 155.37,-37.39"/>
</g>
<!-- &#45;6 -->
<g id="node6" class="node">
<title>&#45;6</title>
<polygon fill="lightgray" stroke="black" points="149.5,-154.85 126,-154.85 126,-136.35 149.5,-136.35 149.5,-154.85"/>
<text text-anchor="middle" x="137.75" y="-142.3" font-family="Times New Roman,serif" font-size="9.00">&#45;6</text>
</g>
<!-- &#45;7 -->
<g id="node7" class="node">
<title>&#45;7</title>
<polygon fill="lightgray" stroke="black" points="191.5,-154.85 168,-154.85 168,-136.35 191.5,-136.35 191.5,-154.85"/>
<text text-anchor="middle" x="179.75" y="-142.3" font-family="Times New Roman,serif" font-size="9.00">&#45;7</text>
</g>
<!-- &#45;8 -->
<g id="node8" class="node">
<title>&#45;8</title>
<polygon fill="lightgray" stroke="black" points="219.5,-91.92 196,-91.92 196,-73.42 219.5,-73.42 219.5,-91.92"/>
<text text-anchor="middle" x="207.75" y="-79.37" font-family="Times New Roman,serif" font-size="9.00">&#45;8</text>
</g>
<!-- &#45;8&#45;&gt;0 -->
<g id="edge4" class="edge">
<title>&#45;8&#45;&gt;0</title>
<path fill="none" stroke="red" stroke-width="0.31" d="M199.51,-73.02C189.9,-62.92 173.76,-45.97 161.48,-33.07"/>
<polygon fill="red" stroke="red" stroke-width="0.31" points="164.19,-30.83 154.76,-26.01 159.12,-35.66 164.19,-30.83"/>
</g>
<!-- &#45;9 -->
<g id="node9" class="node">
<title>&#45;9</title>
<polygon fill="lightgray" stroke="black" points="233.5,-154.85 210,-154.85 210,-136.35 233.5,-136.35 233.5,-154.85"/>
<text text-anchor="middle" x="221.75" y="-142.3" font-family="Times New Roman,serif" font-size="9.00">&#45;9</text>
</g>
<!-- &#45;10 -->
<g id="node10" class="node">
<title>&#45;10</title>
<polygon fill="lightgray" stroke="black" points="265.75,-91.92 237.75,-91.92 237.75,-73.42 265.75,-73.42 265.75,-91.92"/>
<text text-anchor="middle" x="251.75" y="-79.37" font-family="Times New Roman,serif" font-size="9.00">&#45;10</text>
</g>
<!-- &#45;10&#45;&gt;0 -->
<g id="edge5" class="edge">
<title>&#45;10&#45;&gt;0</title>
<path fill="none" stroke="green" stroke-width="0.3" d="M240.2,-72.97C236.58,-70.33 232.55,-67.48 228.75,-64.99 207.84,-51.3 183.11,-36.93 165.92,-27.23"/>
<polygon fill="green" stroke="green" stroke-width="0.3" points="168.05,-24.41 157.61,-22.57 164.62,-30.52 168.05,-24.41"/>
</g>
<!-- 37&#45;&gt;0 -->
<g id="edge7" class="edge">
<title>37&#45;&gt;0</title>
<path fill="none" stroke="green" stroke-width="0.47" d="M89.22,-69.53C99.81,-59.22 115.14,-44.31 127.01,-32.76"/>
<polygon fill="green" stroke="green" stroke-width="0.47" points="129.33,-35.38 134.06,-25.9 124.45,-30.36 129.33,-35.38"/>
</g>
</g>
</svg>
