<?xml version="1.0" encoding="UTF-8" standalone="no"?>
<!DOCTYPE svg PUBLIC "-//W3C//DTD SVG 1.1//EN"
 "http://www.w3.org/Graphics/SVG/1.1/DTD/svg11.dtd">
<!-- Generated by graphviz version 12.1.2 (20240928.0832)
 -->
<!-- Pages: 1 -->
<svg width="379pt" height="163pt"
 viewBox="0.00 0.00 378.75 162.85" xmlns="http://www.w3.org/2000/svg" xmlns:xlink="http://www.w3.org/1999/xlink">
<g id="graph0" class="graph" transform="scale(1 1) rotate(0) translate(4 158.85)">
<polygon fill="white" stroke="none" points="-4,4 -4,-158.85 374.75,-158.85 374.75,4 -4,4"/>
<!-- &#45;1 -->
<g id="node1" class="node">
<title>&#45;1</title>
<polygon fill="lightgray" stroke="black" points="23.5,-91.92 0,-91.92 0,-73.42 23.5,-73.42 23.5,-91.92"/>
<text text-anchor="middle" x="11.75" y="-79.37" font-family="Times New Roman,serif" font-size="9.00">&#45;1</text>
</g>
<!-- 0 -->
<g id="node11" class="node">
<title>0</title>
<ellipse fill="lightblue" stroke="black" cx="186.75" cy="-14.5" rx="14.5" ry="14.5"/>
<text text-anchor="middle" x="186.75" y="-11.2" font-family="Times New Roman,serif" font-size="9.00">0</text>
</g>
<!-- &#45;1&#45;&gt;0 -->
<g id="edge1" class="edge">
<title>&#45;1&#45;&gt;0</title>
<path fill="none" stroke="green" stroke-width="0.2" d="M21.07,-73.08C24.54,-70.21 28.64,-67.19 32.75,-64.99 75.73,-42.01 131.2,-27.44 162.49,-20.44"/>
<polygon fill="green" stroke="green" stroke-width="0.2" points="163.15,-23.88 172.19,-18.34 161.67,-17.04 163.15,-23.88"/>
</g>
<!-- &#45;2 -->
<g id="node2" class="node">
<title>&#45;2</title>
<polygon fill="lightgray" stroke="black" points="65.5,-91.92 42,-91.92 42,-73.42 65.5,-73.42 65.5,-91.92"/>
<text text-anchor="middle" x="53.75" y="-79.37" font-family="Times New Roman,serif" font-size="9.00">&#45;2</text>
</g>
<!-- &#45;2&#45;&gt;0 -->
<g id="edge2" class="edge">
<title>&#45;2&#45;&gt;0</title>
<path fill="none" stroke="green" stroke-width="0.18" d="M65.97,-73.34C70.25,-70.56 75.14,-67.52 79.75,-64.99 108.07,-49.45 142.14,-34.26 164.11,-24.89"/>
<polygon fill="green" stroke="green" stroke-width="0.18" points="165.18,-28.24 173.03,-21.13 162.46,-21.79 165.18,-28.24"/>
</g>
<!-- &#45;3 -->
<g id="node3" class="node">
<title>&#45;3</title>
<polygon fill="lightgray" stroke="black" points="128.5,-154.85 105,-154.85 105,-136.35 128.5,-136.35 128.5,-154.85"/>
<text text-anchor="middle" x="116.75" y="-142.3" font-family="Times New Roman,serif" font-size="9.00">&#45;3</text>
</g>
<!-- &#45;3&#45;&gt;0 -->
<g id="edge3" class="edge">
<title>&#45;3&#45;&gt;0</title>
<path fill="none" stroke="red" stroke-width="0.33" stroke-dasharray="1,5" d="M113.62,-136.08C108.57,-120.8 100.36,-88.18 112.75,-64.99 123.4,-45.05 146.05,-31.74 163.5,-23.99"/>
<polygon fill="red" stroke="red" stroke-width="0.33" points="164.66,-27.29 172.58,-20.25 162,-20.82 164.66,-27.29"/>
</g>
<!-- 20 -->
<g id="node12" class="node">
<title>20</title>
<ellipse fill="white" stroke="black" cx="139.75" cy="-82.67" rx="17.68" ry="17.68"/>
<text text-anchor="middle" x="139.75" y="-79.37" font-family="Times New Roman,serif" font-size="9.00">20</text>
</g>
<!-- &#45;3&#45;&gt;20 -->
<g id="edge8" class="edge">
<title>&#45;3&#45;&gt;20</title>
<path fill="none" stroke="green" stroke-width="0.25" d="M120.05,-135.87C122.7,-128.83 126.57,-118.58 130.18,-109.01"/>
<polygon fill="green" stroke="green" stroke-width="0.25" points="133.4,-110.4 133.66,-99.81 126.85,-107.93 133.4,-110.4"/>
</g>
<!-- &#45;4 -->
<g id="node4" class="node">
<title>&#45;4</title>
<polygon fill="lightgray" stroke="black" points="170.5,-154.85 147,-154.85 147,-136.35 170.5,-136.35 170.5,-154.85"/>
<text text-anchor="middle" x="158.75" y="-142.3" font-family="Times New Roman,serif" font-size="9.00">&#45;4</text>
</g>
<!-- &#45;5 -->
<g id="node5" class="node">
<title>&#45;5</title>
<polygon fill="lightgray" stroke="black" points="198.5,-91.92 175,-91.92 175,-73.42 198.5,-73.42 198.5,-91.92"/>
<text text-anchor="middle" x="186.75" y="-79.37" font-family="Times New Roman,serif" font-size="9.00">&#45;5</text>
</g>
<!-- &#45;5&#45;&gt;0 -->
<g id="edge10" class="edge">
<title>&#45;5&#45;&gt;0</title>
<path fill="none" stroke="red" stroke-width="0.26" d="M186.75,-73.02C186.75,-64.54 186.75,-51.23 186.75,-39.55"/>
<polygon fill="red" stroke="red" stroke-width="0.26" points="190.25,-39.85 186.75,-29.85 183.25,-39.85 190.25,-39.85"/>
</g>
<!-- &#45;6 -->
<g id="node6" class="node">
<title>&#45;6</title>
<polygon fill="lightgray" stroke="black" points="240.5,-91.92 217,-91.92 217,-73.42 240.5,-73.42 240.5,-91.92"/>
<text text-anchor="middle" x="228.75" y="-79.37" font-family="Times New Roman,serif" font-size="9.00">&#45;6</text>
</g>
<!-- &#45;6&#45;&gt;0 -->
<g id="edge4" class="edge">
<title>&#45;6&#45;&gt;0</title>
<path fill="none" stroke="red" stroke-width="0.11" d="M223.26,-73.02C217.25,-63.55 207.4,-48.04 199.45,-35.51"/>
<polygon fill="red" stroke="red" stroke-width="0.11" points="202.48,-33.75 194.16,-27.18 196.57,-37.5 202.48,-33.75"/>
</g>
<!-- &#45;7 -->
<g id="node7" class="node">
<title>&#45;7</title>
<polygon fill="lightgray" stroke="black" points="212.5,-154.85 189,-154.85 189,-136.35 212.5,-136.35 212.5,-154.85"/>
<text text-anchor="middle" x="200.75" y="-142.3" font-family="Times New Roman,serif" font-size="9.00">&#45;7</text>
</g>
<!-- &#45;8 -->
<g id="node8" class="node">
<title>&#45;8</title>
<polygon fill="lightgray" stroke="black" points="282.5,-91.92 259,-91.92 259,-73.42 282.5,-73.42 282.5,-91.92"/>
<text text-anchor="middle" x="270.75" y="-79.37" font-family="Times New Roman,serif" font-size="9.00">&#45;8</text>
</g>
<!-- &#45;8&#45;&gt;0 -->
<g id="edge5" class="edge">
<title>&#45;8&#45;&gt;0</title>
<path fill="none" stroke="red" stroke-width="0.11" d="M260.08,-73.17C256.77,-70.55 253.11,-67.65 249.75,-64.99 235.03,-53.36 218.33,-40.25 205.83,-30.44"/>
<polygon fill="red" stroke="red" stroke-width="0.11" points="208.07,-27.76 198.05,-24.34 203.76,-33.27 208.07,-27.76"/>
</g>
<!-- &#45;9 -->
<g id="node9" class="node">
<title>&#45;9</title>
<polygon fill="lightgray" stroke="black" points="324.5,-91.92 301,-91.92 301,-73.42 324.5,-73.42 324.5,-91.92"/>
<text text-anchor="middle" x="312.75" y="-79.37" font-family="Times New Roman,serif" font-size="9.00">&#45;9</text>
</g>
<!-- &#45;9&#45;&gt;0 -->
<g id="edge6" class="edge">
<title>&#45;9&#45;&gt;0</title>
<path fill="none" stroke="red" stroke-width="0.27" d="M302.84,-73.03C299.45,-70.28 295.55,-67.35 291.75,-64.99 264.85,-48.28 231.42,-33.44 209.61,-24.47"/>
<polygon fill="red" stroke="red" stroke-width="0.27" points="211.15,-21.32 200.57,-20.81 208.53,-27.81 211.15,-21.32"/>
</g>
<!-- &#45;10 -->
<g id="node10" class="node">
<title>&#45;10</title>
<polygon fill="lightgray" stroke="black" points="370.75,-91.92 342.75,-91.92 342.75,-73.42 370.75,-73.42 370.75,-91.92"/>
<text text-anchor="middle" x="356.75" y="-79.37" font-family="Times New Roman,serif" font-size="9.00">&#45;10</text>
</g>
<!-- &#45;10&#45;&gt;0 -->
<g id="edge7" class="edge">
<title>&#45;10&#45;&gt;0</title>
<path fill="none" stroke="green" stroke-width="0.35" d="M346.42,-73.16C342.6,-70.29 338.13,-67.25 333.75,-64.99 292.82,-43.89 240.98,-28.89 211.07,-21.26"/>
<polygon fill="green" stroke="green" stroke-width="0.35" points="212.16,-17.93 201.61,-18.91 210.47,-24.72 212.16,-17.93"/>
</g>
<!-- 20&#45;&gt;0 -->
<g id="edge9" class="edge">
<title>20&#45;&gt;0</title>
<path fill="none" stroke="red" stroke-width="0.23" d="M149.72,-67.64C156.45,-58.15 165.44,-45.5 172.87,-35.03"/>
<polygon fill="red" stroke="red" stroke-width="0.23" points="175.54,-37.33 178.47,-27.15 169.83,-33.28 175.54,-37.33"/>
</g>
</g>
</svg>
