<?xml version="1.0" encoding="UTF-8" standalone="no"?>
<!DOCTYPE svg PUBLIC "-//W3C//DTD SVG 1.1//EN"
 "http://www.w3.org/Graphics/SVG/1.1/DTD/svg11.dtd">
<!-- Generated by graphviz version 12.1.2 (20240928.0832)
 -->
<!-- Pages: 1 -->
<svg width="316pt" height="163pt"
 viewBox="0.00 0.00 316.33 162.85" xmlns="http://www.w3.org/2000/svg" xmlns:xlink="http://www.w3.org/1999/xlink">
<g id="graph0" class="graph" transform="scale(1 1) rotate(0) translate(4 158.85)">
<polygon fill="white" stroke="none" points="-4,4 -4,-158.85 312.33,-158.85 312.33,4 -4,4"/>
<!-- &#45;1 -->
<g id="node1" class="node">
<title>&#45;1</title>
<polygon fill="lightgray" stroke="black" points="24.08,-154.85 0.58,-154.85 0.58,-136.35 24.08,-136.35 24.08,-154.85"/>
<text text-anchor="middle" x="12.33" y="-142.3" font-family="Times New Roman,serif" font-size="9.00">&#45;1</text>
</g>
<!-- 0 -->
<g id="node11" class="node">
<title>0</title>
<ellipse fill="lightblue" stroke="black" cx="145.33" cy="-14.5" rx="14.5" ry="14.5"/>
<text text-anchor="middle" x="145.33" y="-11.2" font-family="Times New Roman,serif" font-size="9.00">0</text>
</g>
<!-- &#45;1&#45;&gt;0 -->
<g id="edge1" class="edge">
<title>&#45;1&#45;&gt;0</title>
<path fill="none" stroke="green" stroke-width="0.98" stroke-dasharray="1,5" d="M8.75,-135.99C2.85,-120.29 -6.85,-86.62 8.33,-64.99 33.46,-29.2 87.14,-19.18 119.34,-16.44"/>
<polygon fill="green" stroke="green" stroke-width="0.98" points="119.3,-19.95 129.05,-15.81 118.85,-12.97 119.3,-19.95"/>
</g>
<!-- 10 -->
<g id="node12" class="node">
<title>10</title>
<ellipse fill="white" stroke="black" cx="35.33" cy="-82.67" rx="17.68" ry="17.68"/>
<text text-anchor="middle" x="35.33" y="-79.37" font-family="Times New Roman,serif" font-size="9.00">10</text>
</g>
<!-- &#45;1&#45;&gt;10 -->
<g id="edge8" class="edge">
<title>&#45;1&#45;&gt;10</title>
<path fill="none" stroke="green" stroke-width="0.29" d="M15.63,-135.87C18.28,-128.83 22.15,-118.58 25.76,-109.01"/>
<polygon fill="green" stroke="green" stroke-width="0.29" points="28.96,-110.46 29.22,-99.86 22.41,-107.98 28.96,-110.46"/>
</g>
<!-- &#45;2 -->
<g id="node2" class="node">
<title>&#45;2</title>
<polygon fill="lightgray" stroke="black" points="94.08,-91.92 70.58,-91.92 70.58,-73.42 94.08,-73.42 94.08,-91.92"/>
<text text-anchor="middle" x="82.33" y="-79.37" font-family="Times New Roman,serif" font-size="9.00">&#45;2</text>
</g>
<!-- &#45;2&#45;&gt;0 -->
<g id="edge2" class="edge">
<title>&#45;2&#45;&gt;0</title>
<path fill="none" stroke="green" stroke-width="0.12" d="M90.57,-73.02C100.27,-62.83 116.63,-45.65 128.94,-32.71"/>
<polygon fill="green" stroke="green" stroke-width="0.12" points="131.16,-35.45 135.52,-25.8 126.09,-30.63 131.16,-35.45"/>
</g>
<!-- &#45;3 -->
<g id="node3" class="node">
<title>&#45;3</title>
<polygon fill="lightgray" stroke="black" points="136.08,-91.92 112.58,-91.92 112.58,-73.42 136.08,-73.42 136.08,-91.92"/>
<text text-anchor="middle" x="124.33" y="-79.37" font-family="Times New Roman,serif" font-size="9.00">&#45;3</text>
</g>
<!-- &#45;3&#45;&gt;0 -->
<g id="edge3" class="edge">
<title>&#45;3&#45;&gt;0</title>
<path fill="none" stroke="red" stroke-width="0.41" d="M127.08,-73.02C129.86,-64.24 134.29,-50.27 138.09,-38.3"/>
<polygon fill="red" stroke="red" stroke-width="0.41" points="141.34,-39.65 141.03,-29.06 134.66,-37.54 141.34,-39.65"/>
</g>
<!-- &#45;4 -->
<g id="node4" class="node">
<title>&#45;4</title>
<polygon fill="lightgray" stroke="black" points="66.08,-154.85 42.58,-154.85 42.58,-136.35 66.08,-136.35 66.08,-154.85"/>
<text text-anchor="middle" x="54.33" y="-142.3" font-family="Times New Roman,serif" font-size="9.00">&#45;4</text>
</g>
<!-- &#45;5 -->
<g id="node5" class="node">
<title>&#45;5</title>
<polygon fill="lightgray" stroke="black" points="178.08,-91.92 154.58,-91.92 154.58,-73.42 178.08,-73.42 178.08,-91.92"/>
<text text-anchor="middle" x="166.33" y="-79.37" font-family="Times New Roman,serif" font-size="9.00">&#45;5</text>
</g>
<!-- &#45;5&#45;&gt;0 -->
<g id="edge4" class="edge">
<title>&#45;5&#45;&gt;0</title>
<path fill="none" stroke="red" stroke-width="0.48" d="M163.59,-73.02C160.83,-64.33 156.46,-50.56 152.68,-38.67"/>
<polygon fill="red" stroke="red" stroke-width="0.48" points="156.03,-37.64 149.67,-29.17 149.36,-39.76 156.03,-37.64"/>
</g>
<!-- &#45;6 -->
<g id="node6" class="node">
<title>&#45;6</title>
<polygon fill="lightgray" stroke="black" points="220.08,-91.92 196.58,-91.92 196.58,-73.42 220.08,-73.42 220.08,-91.92"/>
<text text-anchor="middle" x="208.33" y="-79.37" font-family="Times New Roman,serif" font-size="9.00">&#45;6</text>
</g>
<!-- &#45;6&#45;&gt;0 -->
<g id="edge5" class="edge">
<title>&#45;6&#45;&gt;0</title>
<path fill="none" stroke="red" stroke-width="0.94" d="M200.1,-73.02C190.66,-63.11 174.95,-46.6 162.77,-33.81"/>
<polygon fill="red" stroke="red" stroke-width="0.94" points="165.43,-31.53 156,-26.7 160.36,-36.35 165.43,-31.53"/>
</g>
<!-- &#45;7 -->
<g id="node7" class="node">
<title>&#45;7</title>
<polygon fill="lightgray" stroke="black" points="108.08,-154.85 84.58,-154.85 84.58,-136.35 108.08,-136.35 108.08,-154.85"/>
<text text-anchor="middle" x="96.33" y="-142.3" font-family="Times New Roman,serif" font-size="9.00">&#45;7</text>
</g>
<!-- &#45;8 -->
<g id="node8" class="node">
<title>&#45;8</title>
<polygon fill="lightgray" stroke="black" points="262.08,-91.92 238.58,-91.92 238.58,-73.42 262.08,-73.42 262.08,-91.92"/>
<text text-anchor="middle" x="250.33" y="-79.37" font-family="Times New Roman,serif" font-size="9.00">&#45;8</text>
</g>
<!-- &#45;8&#45;&gt;0 -->
<g id="edge6" class="edge">
<title>&#45;8&#45;&gt;0</title>
<path fill="none" stroke="green" stroke-width="0.22" d="M240.29,-73.23C236.89,-70.5 233.02,-67.52 229.33,-64.99 208.73,-50.84 183.95,-36.55 166.66,-26.98"/>
<polygon fill="green" stroke="green" stroke-width="0.22" points="168.64,-24.08 158.19,-22.35 165.28,-30.22 168.64,-24.08"/>
</g>
<!-- &#45;9 -->
<g id="node9" class="node">
<title>&#45;9</title>
<polygon fill="lightgray" stroke="black" points="150.08,-154.85 126.58,-154.85 126.58,-136.35 150.08,-136.35 150.08,-154.85"/>
<text text-anchor="middle" x="138.33" y="-142.3" font-family="Times New Roman,serif" font-size="9.00">&#45;9</text>
</g>
<!-- &#45;10 -->
<g id="node10" class="node">
<title>&#45;10</title>
<polygon fill="lightgray" stroke="black" points="308.33,-91.92 280.33,-91.92 280.33,-73.42 308.33,-73.42 308.33,-91.92"/>
<text text-anchor="middle" x="294.33" y="-79.37" font-family="Times New Roman,serif" font-size="9.00">&#45;10</text>
</g>
<!-- &#45;10&#45;&gt;0 -->
<g id="edge7" class="edge">
<title>&#45;10&#45;&gt;0</title>
<path fill="none" stroke="red" stroke-width="0.37" d="M283.48,-72.93C279.76,-70.18 275.48,-67.26 271.33,-64.99 237.42,-46.43 195.06,-31.28 169.12,-22.83"/>
<polygon fill="red" stroke="red" stroke-width="0.37" points="170.21,-19.5 159.61,-19.8 168.08,-26.17 170.21,-19.5"/>
</g>
<!-- 10&#45;&gt;0 -->
<g id="edge9" class="edge">
<title>10&#45;&gt;0</title>
<path fill="none" stroke="green" stroke-width="0.63" d="M49.85,-72.22C53.57,-69.83 57.59,-67.3 61.33,-64.99 82.42,-52.02 106.84,-37.71 123.89,-27.83"/>
<polygon fill="green" stroke="green" stroke-width="0.63" points="125.27,-31.08 132.17,-23.04 121.76,-25.02 125.27,-31.08"/>
</g>
</g>
</svg>
