<?xml version="1.0" encoding="UTF-8" standalone="no"?>
<!DOCTYPE svg PUBLIC "-//W3C//DTD SVG 1.1//EN"
 "http://www.w3.org/Graphics/SVG/1.1/DTD/svg11.dtd">
<!-- Generated by graphviz version 12.1.2 (20240928.0832)
 -->
<!-- Pages: 1 -->
<svg width="414pt" height="91pt"
 viewBox="0.00 0.00 413.75 91.49" xmlns="http://www.w3.org/2000/svg" xmlns:xlink="http://www.w3.org/1999/xlink">
<g id="graph0" class="graph" transform="scale(1 1) rotate(0) translate(4 87.49)">
<polygon fill="white" stroke="none" points="-4,4 -4,-87.49 409.75,-87.49 409.75,4 -4,4"/>
<!-- &#45;1 -->
<g id="node1" class="node">
<title>&#45;1</title>
<polygon fill="lightgray" stroke="black" points="23.5,-83.49 0,-83.49 0,-64.99 23.5,-64.99 23.5,-83.49"/>
<text text-anchor="middle" x="11.75" y="-70.94" font-family="Times New Roman,serif" font-size="9.00">&#45;1</text>
</g>
<!-- 0 -->
<g id="node11" class="node">
<title>0</title>
<ellipse fill="lightblue" stroke="black" cx="179.75" cy="-14.5" rx="14.5" ry="14.5"/>
<text text-anchor="middle" x="179.75" y="-11.2" font-family="Times New Roman,serif" font-size="9.00">0</text>
</g>
<!-- &#45;1&#45;&gt;0 -->
<g id="edge1" class="edge">
<title>&#45;1&#45;&gt;0</title>
<path fill="none" stroke="green" stroke-width="0.42" d="M23.7,-68.43C26.65,-67.27 29.81,-66.06 32.75,-64.99 75.82,-49.29 126.62,-32.58 155.82,-23.15"/>
<polygon fill="green" stroke="green" stroke-width="0.42" points="156.84,-26.5 165.29,-20.1 154.69,-19.84 156.84,-26.5"/>
</g>
<!-- &#45;2 -->
<g id="node2" class="node">
<title>&#45;2</title>
<polygon fill="lightgray" stroke="black" points="65.5,-83.49 42,-83.49 42,-64.99 65.5,-64.99 65.5,-83.49"/>
<text text-anchor="middle" x="53.75" y="-70.94" font-family="Times New Roman,serif" font-size="9.00">&#45;2</text>
</g>
<!-- &#45;2&#45;&gt;0 -->
<g id="edge2" class="edge">
<title>&#45;2&#45;&gt;0</title>
<path fill="none" stroke="red" stroke-width="0.36" d="M65.83,-67.7C86.91,-58.04 130.72,-37.97 157.44,-25.72"/>
<polygon fill="red" stroke="red" stroke-width="0.36" points="158.64,-29.02 166.28,-21.67 155.73,-22.66 158.64,-29.02"/>
</g>
<!-- &#45;3 -->
<g id="node3" class="node">
<title>&#45;3</title>
<polygon fill="lightgray" stroke="black" points="107.5,-83.49 84,-83.49 84,-64.99 107.5,-64.99 107.5,-83.49"/>
<text text-anchor="middle" x="95.75" y="-70.94" font-family="Times New Roman,serif" font-size="9.00">&#45;3</text>
</g>
<!-- &#45;3&#45;&gt;0 -->
<g id="edge3" class="edge">
<title>&#45;3&#45;&gt;0</title>
<path fill="none" stroke="red" stroke-width="0.32" stroke-dasharray="1,5" d="M107.79,-64.97C121.34,-55.65 143.57,-40.37 159.74,-29.25"/>
<polygon fill="red" stroke="red" stroke-width="0.32" points="161.36,-32.39 167.61,-23.84 157.39,-26.62 161.36,-32.39"/>
</g>
<!-- &#45;4 -->
<g id="node4" class="node">
<title>&#45;4</title>
<polygon fill="lightgray" stroke="black" points="149.5,-83.49 126,-83.49 126,-64.99 149.5,-64.99 149.5,-83.49"/>
<text text-anchor="middle" x="137.75" y="-70.94" font-family="Times New Roman,serif" font-size="9.00">&#45;4</text>
</g>
<!-- &#45;4&#45;&gt;0 -->
<g id="edge4" class="edge">
<title>&#45;4&#45;&gt;0</title>
<path fill="none" stroke="green" stroke-width="0.26" d="M143.95,-64.72C149.59,-56.96 158.15,-45.2 165.48,-35.12"/>
<polygon fill="green" stroke="green" stroke-width="0.26" points="168.22,-37.3 171.27,-27.15 162.56,-33.18 168.22,-37.3"/>
</g>
<!-- &#45;5 -->
<g id="node5" class="node">
<title>&#45;5</title>
<polygon fill="lightgray" stroke="black" points="191.5,-83.49 168,-83.49 168,-64.99 191.5,-64.99 191.5,-83.49"/>
<text text-anchor="middle" x="179.75" y="-70.94" font-family="Times New Roman,serif" font-size="9.00">&#45;5</text>
</g>
<!-- &#45;5&#45;&gt;0 -->
<g id="edge5" class="edge">
<title>&#45;5&#45;&gt;0</title>
<path fill="none" stroke="red" stroke-width="0.46" d="M179.75,-64.72C179.75,-58.19 179.75,-48.84 179.75,-40.03"/>
<polygon fill="red" stroke="red" stroke-width="0.46" points="183.25,-40.13 179.75,-30.13 176.25,-40.13 183.25,-40.13"/>
</g>
<!-- &#45;6 -->
<g id="node6" class="node">
<title>&#45;6</title>
<polygon fill="lightgray" stroke="black" points="233.5,-83.49 210,-83.49 210,-64.99 233.5,-64.99 233.5,-83.49"/>
<text text-anchor="middle" x="221.75" y="-70.94" font-family="Times New Roman,serif" font-size="9.00">&#45;6</text>
</g>
<!-- &#45;6&#45;&gt;0 -->
<g id="edge6" class="edge">
<title>&#45;6&#45;&gt;0</title>
<path fill="none" stroke="red" stroke-width="0.3" d="M215.55,-64.72C209.91,-56.96 201.35,-45.2 194.02,-35.12"/>
<polygon fill="red" stroke="red" stroke-width="0.3" points="196.97,-33.23 188.26,-27.2 191.31,-37.34 196.97,-33.23"/>
</g>
<!-- &#45;7 -->
<g id="node7" class="node">
<title>&#45;7</title>
<polygon fill="lightgray" stroke="black" points="275.5,-83.49 252,-83.49 252,-64.99 275.5,-64.99 275.5,-83.49"/>
<text text-anchor="middle" x="263.75" y="-70.94" font-family="Times New Roman,serif" font-size="9.00">&#45;7</text>
</g>
<!-- &#45;7&#45;&gt;0 -->
<g id="edge7" class="edge">
<title>&#45;7&#45;&gt;0</title>
<path fill="none" stroke="red" stroke-width="0.11" d="M251.71,-64.97C238.16,-55.65 215.93,-40.37 199.76,-29.25"/>
<polygon fill="red" stroke="red" stroke-width="0.11" points="201.85,-26.44 191.63,-23.66 197.89,-32.21 201.85,-26.44"/>
</g>
<!-- &#45;8 -->
<g id="node8" class="node">
<title>&#45;8</title>
<polygon fill="lightgray" stroke="black" points="317.5,-83.49 294,-83.49 294,-64.99 317.5,-64.99 317.5,-83.49"/>
<text text-anchor="middle" x="305.75" y="-70.94" font-family="Times New Roman,serif" font-size="9.00">&#45;8</text>
</g>
<!-- &#45;8&#45;&gt;0 -->
<g id="edge8" class="edge">
<title>&#45;8&#45;&gt;0</title>
<path fill="none" stroke="green" stroke-width="0.29" d="M293.67,-67.7C272.59,-58.04 228.78,-37.97 202.06,-25.72"/>
<polygon fill="green" stroke="green" stroke-width="0.29" points="203.68,-22.61 193.13,-21.63 200.76,-28.98 203.68,-22.61"/>
</g>
<!-- &#45;9 -->
<g id="node9" class="node">
<title>&#45;9</title>
<polygon fill="lightgray" stroke="black" points="359.5,-83.49 336,-83.49 336,-64.99 359.5,-64.99 359.5,-83.49"/>
<text text-anchor="middle" x="347.75" y="-70.94" font-family="Times New Roman,serif" font-size="9.00">&#45;9</text>
</g>
<!-- &#45;9&#45;&gt;0 -->
<g id="edge9" class="edge">
<title>&#45;9&#45;&gt;0</title>
<path fill="none" stroke="red" stroke-width="0.53" d="M335.8,-68.43C332.85,-67.27 329.69,-66.06 326.75,-64.99 283.68,-49.29 232.88,-32.58 203.68,-23.15"/>
<polygon fill="red" stroke="red" stroke-width="0.53" points="204.96,-19.89 194.37,-20.15 202.82,-26.55 204.96,-19.89"/>
</g>
<!-- &#45;10 -->
<g id="node10" class="node">
<title>&#45;10</title>
<polygon fill="lightgray" stroke="black" points="405.75,-83.49 377.75,-83.49 377.75,-64.99 405.75,-64.99 405.75,-83.49"/>
<text text-anchor="middle" x="391.75" y="-70.94" font-family="Times New Roman,serif" font-size="9.00">&#45;10</text>
</g>
</g>
</svg>
