<?xml version="1.0" encoding="UTF-8" standalone="no"?>
<!DOCTYPE svg PUBLIC "-//W3C//DTD SVG 1.1//EN"
 "http://www.w3.org/Graphics/SVG/1.1/DTD/svg11.dtd">
<!-- Generated by graphviz version 12.1.2 (20240928.0832)
 -->
<!-- Pages: 1 -->
<svg width="414pt" height="156pt"
 viewBox="0.00 0.00 413.75 156.48" xmlns="http://www.w3.org/2000/svg" xmlns:xlink="http://www.w3.org/1999/xlink">
<g id="graph0" class="graph" transform="scale(1 1) rotate(0) translate(4 152.48)">
<polygon fill="white" stroke="none" points="-4,4 -4,-152.48 409.75,-152.48 409.75,4 -4,4"/>
<!-- &#45;1 -->
<g id="node1" class="node">
<title>&#45;1</title>
<polygon fill="lightgray" stroke="black" points="65.5,-148.48 42,-148.48 42,-129.98 65.5,-129.98 65.5,-148.48"/>
<text text-anchor="middle" x="53.75" y="-135.93" font-family="Times New Roman,serif" font-size="9.00">&#45;1</text>
</g>
<!-- 1 -->
<g id="node12" class="node">
<title>1</title>
<ellipse fill="white" stroke="black" cx="268.75" cy="-79.49" rx="14.5" ry="14.5"/>
<text text-anchor="middle" x="268.75" y="-76.19" font-family="Times New Roman,serif" font-size="9.00">1</text>
</g>
<!-- &#45;1&#45;&gt;1 -->
<g id="edge1" class="edge">
<title>&#45;1&#45;&gt;1</title>
<path fill="none" stroke="green" stroke-width="0.13" d="M65.62,-133.17C68.57,-132.03 71.75,-130.88 74.75,-129.98 148.72,-107.79 172.48,-121.22 244.75,-93.98 245.78,-93.59 246.82,-93.17 247.85,-92.71"/>
<polygon fill="green" stroke="green" stroke-width="0.13" points="249.4,-95.85 256.72,-88.18 246.22,-89.62 249.4,-95.85"/>
</g>
<!-- 2 -->
<g id="node13" class="node">
<title>2</title>
<ellipse fill="white" stroke="black" cx="127.75" cy="-79.49" rx="14.5" ry="14.5"/>
<text text-anchor="middle" x="127.75" y="-76.19" font-family="Times New Roman,serif" font-size="9.00">2</text>
</g>
<!-- &#45;1&#45;&gt;2 -->
<g id="edge2" class="edge">
<title>&#45;1&#45;&gt;2</title>
<path fill="none" stroke="green" stroke-width="0.21" d="M64.67,-129.71C76.26,-120.67 94.78,-106.21 108.77,-95.3"/>
<polygon fill="green" stroke="green" stroke-width="0.21" points="110.81,-98.15 116.54,-89.24 106.5,-92.63 110.81,-98.15"/>
</g>
<!-- 3 -->
<g id="node14" class="node">
<title>3</title>
<ellipse fill="white" stroke="black" cx="174.75" cy="-79.49" rx="14.5" ry="14.5"/>
<text text-anchor="middle" x="174.75" y="-76.19" font-family="Times New Roman,serif" font-size="9.00">3</text>
</g>
<!-- &#45;1&#45;&gt;3 -->
<g id="edge3" class="edge">
<title>&#45;1&#45;&gt;3</title>
<path fill="none" stroke="red" stroke-width="0.25" d="M65.85,-133.1C84.36,-125.17 120.72,-109.24 150.75,-93.98 151.73,-93.48 152.73,-92.97 153.73,-92.44"/>
<polygon fill="red" stroke="red" stroke-width="0.25" points="155.23,-95.61 162.32,-87.73 151.87,-89.47 155.23,-95.61"/>
</g>
<!-- 4 -->
<g id="node15" class="node">
<title>4</title>
<ellipse fill="white" stroke="black" cx="221.75" cy="-79.49" rx="14.5" ry="14.5"/>
<text text-anchor="middle" x="221.75" y="-76.19" font-family="Times New Roman,serif" font-size="9.00">4</text>
</g>
<!-- &#45;1&#45;&gt;4 -->
<g id="edge4" class="edge">
<title>&#45;1&#45;&gt;4</title>
<path fill="none" stroke="red" stroke-width="0.53" d="M65.68,-133.33C68.62,-132.18 71.78,-131 74.75,-129.98 128.65,-111.55 145.25,-116.08 197.75,-93.98 198.64,-93.61 199.53,-93.21 200.43,-92.79"/>
<polygon fill="red" stroke="red" stroke-width="0.53" points="201.84,-96 209.09,-88.28 198.61,-89.8 201.84,-96"/>
</g>
<!-- &#45;2 -->
<g id="node2" class="node">
<title>&#45;2</title>
<polygon fill="lightgray" stroke="black" points="107.5,-148.48 84,-148.48 84,-129.98 107.5,-129.98 107.5,-148.48"/>
<text text-anchor="middle" x="95.75" y="-135.93" font-family="Times New Roman,serif" font-size="9.00">&#45;2</text>
</g>
<!-- &#45;2&#45;&gt;1 -->
<g id="edge5" class="edge">
<title>&#45;2&#45;&gt;1</title>
<path fill="none" stroke="red" stroke-width="0.51" d="M107.67,-133.31C110.61,-132.16 113.78,-130.98 116.75,-129.98 172.77,-111.15 190.16,-116.63 244.75,-93.98 245.64,-93.61 246.54,-93.22 247.43,-92.81"/>
<polygon fill="red" stroke="red" stroke-width="0.51" points="248.88,-96 256.14,-88.28 245.65,-89.79 248.88,-96"/>
</g>
<!-- &#45;2&#45;&gt;2 -->
<g id="edge6" class="edge">
<title>&#45;2&#45;&gt;2</title>
<path fill="none" stroke="red" stroke-width="0.25" d="M100.47,-129.71C104.58,-122.29 110.71,-111.23 116.12,-101.47"/>
<polygon fill="red" stroke="red" stroke-width="0.25" points="119.03,-103.45 120.81,-93.01 112.9,-100.06 119.03,-103.45"/>
</g>
<!-- &#45;2&#45;&gt;3 -->
<g id="edge7" class="edge">
<title>&#45;2&#45;&gt;3</title>
<path fill="none" stroke="green" stroke-width="0.3" d="M107.41,-129.71C119.96,-120.53 140.16,-105.77 155.16,-94.8"/>
<polygon fill="green" stroke="green" stroke-width="0.3" points="156.92,-97.85 162.93,-89.13 152.79,-92.2 156.92,-97.85"/>
</g>
<!-- &#45;2&#45;&gt;4 -->
<g id="edge8" class="edge">
<title>&#45;2&#45;&gt;4</title>
<path fill="none" stroke="red" stroke-width="0.38" d="M107.87,-133.45C127.16,-125.73 165.94,-109.78 197.75,-93.98 198.73,-93.49 199.74,-92.98 200.74,-92.46"/>
<polygon fill="red" stroke="red" stroke-width="0.38" points="202.06,-95.73 209.17,-87.87 198.71,-89.58 202.06,-95.73"/>
</g>
<!-- &#45;3 -->
<g id="node3" class="node">
<title>&#45;3</title>
<polygon fill="lightgray" stroke="black" points="149.5,-148.48 126,-148.48 126,-129.98 149.5,-129.98 149.5,-148.48"/>
<text text-anchor="middle" x="137.75" y="-135.93" font-family="Times New Roman,serif" font-size="9.00">&#45;3</text>
</g>
<!-- &#45;3&#45;&gt;1 -->
<g id="edge9" class="edge">
<title>&#45;3&#45;&gt;1</title>
<path fill="none" stroke="green" stroke-width="0.3" d="M149.71,-133.5C173.72,-123.96 227.03,-102.59 244.75,-93.98 245.74,-93.5 246.74,-93 247.75,-92.48"/>
<polygon fill="green" stroke="green" stroke-width="0.3" points="249.16,-95.7 256.29,-87.86 245.83,-89.55 249.16,-95.7"/>
</g>
<!-- &#45;3&#45;&gt;2 -->
<g id="edge10" class="edge">
<title>&#45;3&#45;&gt;2</title>
<path fill="none" stroke="green" stroke-width="0.45" d="M136.27,-129.71C135.12,-123.02 133.44,-113.36 131.89,-104.37"/>
<polygon fill="green" stroke="green" stroke-width="0.45" points="135.36,-103.9 130.2,-94.64 128.46,-105.09 135.36,-103.9"/>
</g>
<!-- &#45;3&#45;&gt;3 -->
<g id="edge11" class="edge">
<title>&#45;3&#45;&gt;3</title>
<path fill="none" stroke="green" stroke-width="0.17" d="M143.21,-129.71C148.07,-122.12 155.38,-110.71 161.74,-100.79"/>
<polygon fill="green" stroke="green" stroke-width="0.17" points="164.63,-102.77 167.08,-92.46 158.74,-98.99 164.63,-102.77"/>
</g>
<!-- &#45;3&#45;&gt;4 -->
<g id="edge12" class="edge">
<title>&#45;3&#45;&gt;4</title>
<path fill="none" stroke="red" stroke-width="0.31" d="M149.79,-129.96C163.34,-120.64 185.57,-105.36 201.74,-94.24"/>
<polygon fill="red" stroke="red" stroke-width="0.31" points="203.36,-97.37 209.62,-88.82 199.4,-91.61 203.36,-97.37"/>
</g>
<!-- &#45;4 -->
<g id="node4" class="node">
<title>&#45;4</title>
<polygon fill="lightgray" stroke="black" points="191.5,-148.48 168,-148.48 168,-129.98 191.5,-129.98 191.5,-148.48"/>
<text text-anchor="middle" x="179.75" y="-135.93" font-family="Times New Roman,serif" font-size="9.00">&#45;4</text>
</g>
<!-- &#45;4&#45;&gt;1 -->
<g id="edge13" class="edge">
<title>&#45;4&#45;&gt;1</title>
<path fill="none" stroke="red" stroke-width="0.22" d="M191.75,-130.44C206.22,-121.06 230.76,-105.14 248.24,-93.79"/>
<polygon fill="red" stroke="red" stroke-width="0.22" points="249.89,-96.89 256.38,-88.51 246.08,-91.02 249.89,-96.89"/>
</g>
<!-- &#45;4&#45;&gt;2 -->
<g id="edge14" class="edge">
<title>&#45;4&#45;&gt;2</title>
<path fill="none" stroke="red" stroke-width="0.18" d="M172.08,-129.71C164.69,-121.51 153.3,-108.86 143.91,-98.43"/>
<polygon fill="red" stroke="red" stroke-width="0.18" points="146.69,-96.29 137.4,-91.2 141.49,-100.98 146.69,-96.29"/>
</g>
<!-- &#45;4&#45;&gt;3 -->
<g id="edge15" class="edge">
<title>&#45;4&#45;&gt;3</title>
<path fill="none" stroke="green" stroke-width="0.11" d="M179.01,-129.71C178.43,-123.04 177.6,-113.41 176.82,-104.44"/>
<polygon fill="green" stroke="green" stroke-width="0.11" points="180.32,-104.25 175.97,-94.59 173.35,-104.85 180.32,-104.25"/>
</g>
<!-- &#45;4&#45;&gt;4 -->
<g id="edge16" class="edge">
<title>&#45;4&#45;&gt;4</title>
<path fill="none" stroke="red" stroke-width="0.17" d="M185.95,-129.71C191.59,-121.95 200.15,-110.19 207.48,-100.11"/>
<polygon fill="red" stroke="red" stroke-width="0.17" points="210.3,-102.18 213.35,-92.03 204.64,-98.06 210.3,-102.18"/>
</g>
<!-- &#45;5 -->
<g id="node5" class="node">
<title>&#45;5</title>
<polygon fill="lightgray" stroke="black" points="233.5,-148.48 210,-148.48 210,-129.98 233.5,-129.98 233.5,-148.48"/>
<text text-anchor="middle" x="221.75" y="-135.93" font-family="Times New Roman,serif" font-size="9.00">&#45;5</text>
</g>
<!-- &#45;5&#45;&gt;1 -->
<g id="edge17" class="edge">
<title>&#45;5&#45;&gt;1</title>
<path fill="none" stroke="green" stroke-width="0.17" d="M228.69,-129.71C235.21,-121.69 245.21,-109.41 253.59,-99.12"/>
<polygon fill="green" stroke="green" stroke-width="0.17" points="256.1,-101.58 259.7,-91.61 250.67,-97.16 256.1,-101.58"/>
</g>
<!-- &#45;5&#45;&gt;2 -->
<g id="edge18" class="edge">
<title>&#45;5&#45;&gt;2</title>
<path fill="none" stroke="red" stroke-width="0.11" d="M209.84,-130.92C194.39,-121.43 167.18,-104.71 148.34,-93.14"/>
<polygon fill="red" stroke="red" stroke-width="0.11" points="150.34,-90.26 139.99,-88.01 146.68,-96.22 150.34,-90.26"/>
</g>
<!-- &#45;5&#45;&gt;3 -->
<g id="edge19" class="edge">
<title>&#45;5&#45;&gt;3</title>
<path fill="none" stroke="green" stroke-width="0.12" d="M214.81,-129.71C208.29,-121.69 198.29,-109.41 189.91,-99.12"/>
<polygon fill="green" stroke="green" stroke-width="0.12" points="192.79,-97.1 183.76,-91.55 187.36,-101.52 192.79,-97.1"/>
</g>
<!-- &#45;5&#45;&gt;4 -->
<g id="edge20" class="edge">
<title>&#45;5&#45;&gt;4</title>
<path fill="none" stroke="green" stroke-width="0.52" d="M221.75,-129.71C221.75,-123.18 221.75,-113.83 221.75,-105.02"/>
<polygon fill="green" stroke="green" stroke-width="0.52" points="225.25,-105.2 221.75,-95.2 218.25,-105.2 225.25,-105.2"/>
</g>
<!-- &#45;6 -->
<g id="node6" class="node">
<title>&#45;6</title>
<polygon fill="lightgray" stroke="black" points="275.5,-148.48 252,-148.48 252,-129.98 275.5,-129.98 275.5,-148.48"/>
<text text-anchor="middle" x="263.75" y="-135.93" font-family="Times New Roman,serif" font-size="9.00">&#45;6</text>
</g>
<!-- &#45;6&#45;&gt;1 -->
<g id="edge21" class="edge">
<title>&#45;6&#45;&gt;1</title>
<path fill="none" stroke="green" stroke-width="0.29" d="M264.49,-129.71C265.06,-123.11 265.88,-113.62 266.65,-104.73"/>
<polygon fill="green" stroke="green" stroke-width="0.29" points="270.13,-105.13 267.51,-94.86 263.16,-104.52 270.13,-105.13"/>
</g>
<!-- &#45;6&#45;&gt;2 -->
<g id="edge22" class="edge">
<title>&#45;6&#45;&gt;2</title>
<path fill="none" stroke="red" stroke-width="0.25" d="M251.64,-133.47C223.17,-122.28 154.15,-95.12 151.75,-93.98 150.76,-93.51 149.75,-93.01 148.74,-92.5"/>
<polygon fill="red" stroke="red" stroke-width="0.25" points="150.59,-89.52 140.12,-87.86 147.27,-95.68 150.59,-89.52"/>
</g>
<!-- &#45;6&#45;&gt;3 -->
<g id="edge23" class="edge">
<title>&#45;6&#45;&gt;3</title>
<path fill="none" stroke="green" stroke-width="0.39" d="M251.75,-130.44C237.28,-121.06 212.74,-105.14 195.26,-93.79"/>
<polygon fill="green" stroke="green" stroke-width="0.39" points="197.64,-91.16 187.34,-88.66 193.83,-97.04 197.64,-91.16"/>
</g>
<!-- &#45;6&#45;&gt;4 -->
<g id="edge24" class="edge">
<title>&#45;6&#45;&gt;4</title>
<path fill="none" stroke="green" stroke-width="0.19" d="M257.55,-129.71C251.91,-121.95 243.35,-110.19 236.02,-100.11"/>
<polygon fill="green" stroke="green" stroke-width="0.19" points="238.88,-98.08 230.16,-92.05 233.21,-102.2 238.88,-98.08"/>
</g>
<!-- &#45;7 -->
<g id="node7" class="node">
<title>&#45;7</title>
<polygon fill="lightgray" stroke="black" points="317.5,-148.48 294,-148.48 294,-129.98 317.5,-129.98 317.5,-148.48"/>
<text text-anchor="middle" x="305.75" y="-135.93" font-family="Times New Roman,serif" font-size="9.00">&#45;7</text>
</g>
<!-- &#45;7&#45;&gt;1 -->
<g id="edge25" class="edge">
<title>&#45;7&#45;&gt;1</title>
<path fill="none" stroke="green" stroke-width="0.18" d="M300.29,-129.71C295.43,-122.12 288.12,-110.71 281.76,-100.79"/>
<polygon fill="green" stroke="green" stroke-width="0.18" points="284.78,-99.01 276.43,-92.48 278.88,-102.79 284.78,-99.01"/>
</g>
<!-- &#45;7&#45;&gt;2 -->
<g id="edge26" class="edge">
<title>&#45;7&#45;&gt;2</title>
<path fill="none" stroke="green" stroke-width="0.12" d="M293.84,-133.29C290.89,-132.14 287.73,-130.97 284.75,-129.98 226.61,-110.76 208.43,-117.17 151.75,-93.98 150.73,-93.57 149.7,-93.12 148.67,-92.64"/>
<polygon fill="green" stroke="green" stroke-width="0.12" points="150.31,-89.55 139.83,-88.04 147.08,-95.76 150.31,-89.55"/>
</g>
<!-- &#45;7&#45;&gt;3 -->
<g id="edge27" class="edge">
<title>&#45;7&#45;&gt;3</title>
<path fill="none" stroke="green" stroke-width="0.3" d="M293.79,-133.5C269.78,-123.96 216.47,-102.59 198.75,-93.98 197.76,-93.5 196.76,-93 195.75,-92.48"/>
<polygon fill="green" stroke="green" stroke-width="0.3" points="197.67,-89.54 187.21,-87.86 194.33,-95.7 197.67,-89.54"/>
</g>
<!-- &#45;7&#45;&gt;4 -->
<g id="edge28" class="edge">
<title>&#45;7&#45;&gt;4</title>
<path fill="none" stroke="green" stroke-width="0.22" d="M293.71,-129.96C280.16,-120.64 257.93,-105.36 241.76,-94.24"/>
<polygon fill="green" stroke="green" stroke-width="0.22" points="243.99,-91.53 233.77,-88.75 240.03,-97.3 243.99,-91.53"/>
</g>
<!-- &#45;8 -->
<g id="node8" class="node">
<title>&#45;8</title>
<polygon fill="lightgray" stroke="black" points="23.5,-148.48 0,-148.48 0,-129.98 23.5,-129.98 23.5,-148.48"/>
<text text-anchor="middle" x="11.75" y="-135.93" font-family="Times New Roman,serif" font-size="9.00">&#45;8</text>
</g>
<!-- 0 -->
<g id="node11" class="node">
<title>0</title>
<ellipse fill="lightblue" stroke="black" cx="174.75" cy="-14.5" rx="14.5" ry="14.5"/>
<text text-anchor="middle" x="174.75" y="-11.2" font-family="Times New Roman,serif" font-size="9.00">0</text>
</g>
<!-- &#45;8&#45;&gt;0 -->
<g id="edge45" class="edge">
<title>&#45;8&#45;&gt;0</title>
<path fill="none" stroke="red" stroke-width="0.49" d="M22.21,-129.71C39.28,-115.86 74.28,-87.74 104.75,-64.99 121.38,-52.57 140.67,-39 154.78,-29.21"/>
<polygon fill="red" stroke="red" stroke-width="0.49" points="156.37,-32.36 162.61,-23.8 152.39,-26.6 156.37,-32.36"/>
</g>
<!-- &#45;8&#45;&gt;1 -->
<g id="edge29" class="edge">
<title>&#45;8&#45;&gt;1</title>
<path fill="none" stroke="green" stroke-width="0.14" d="M23.6,-133.09C26.55,-131.94 29.73,-130.82 32.75,-129.98 124.83,-104.37 154.66,-125.88 244.75,-93.98 245.79,-93.62 246.83,-93.21 247.87,-92.76"/>
<polygon fill="green" stroke="green" stroke-width="0.14" points="249.38,-95.92 256.73,-88.3 246.23,-89.67 249.38,-95.92"/>
</g>
<!-- &#45;8&#45;&gt;2 -->
<g id="edge30" class="edge">
<title>&#45;8&#45;&gt;2</title>
<path fill="none" stroke="red" stroke-width="0.11" d="M23.73,-132.27C43.15,-122.6 81.78,-103.37 106.1,-91.26"/>
<polygon fill="red" stroke="red" stroke-width="0.11" points="107.42,-94.52 114.82,-86.93 104.3,-88.25 107.42,-94.52"/>
</g>
<!-- &#45;8&#45;&gt;3 -->
<g id="edge31" class="edge">
<title>&#45;8&#45;&gt;3</title>
<path fill="none" stroke="green" stroke-width="0.21" d="M23.68,-133.36C26.63,-132.21 29.79,-131.01 32.75,-129.98 84.53,-111.94 100.34,-115.55 150.75,-93.98 151.76,-93.55 152.78,-93.09 153.81,-92.6"/>
<polygon fill="green" stroke="green" stroke-width="0.21" points="155.29,-95.78 162.51,-88.03 152.03,-89.58 155.29,-95.78"/>
</g>
<!-- &#45;8&#45;&gt;4 -->
<g id="edge32" class="edge">
<title>&#45;8&#45;&gt;4</title>
<path fill="none" stroke="green" stroke-width="0.41" d="M23.63,-133.19C26.58,-132.04 29.75,-130.89 32.75,-129.98 104.58,-108.19 127.6,-120.67 197.75,-93.98 198.65,-93.64 199.56,-93.27 200.46,-92.87"/>
<polygon fill="green" stroke="green" stroke-width="0.41" points="202,-96.02 209.33,-88.36 198.83,-89.78 202,-96.02"/>
</g>
<!-- &#45;9 -->
<g id="node9" class="node">
<title>&#45;9</title>
<polygon fill="lightgray" stroke="black" points="359.5,-148.48 336,-148.48 336,-129.98 359.5,-129.98 359.5,-148.48"/>
<text text-anchor="middle" x="347.75" y="-135.93" font-family="Times New Roman,serif" font-size="9.00">&#45;9</text>
</g>
<!-- &#45;9&#45;&gt;1 -->
<g id="edge33" class="edge">
<title>&#45;9&#45;&gt;1</title>
<path fill="none" stroke="green" stroke-width="0.33" d="M336.09,-129.71C323.54,-120.53 303.34,-105.77 288.34,-94.8"/>
<polygon fill="green" stroke="green" stroke-width="0.33" points="290.73,-92.22 280.6,-89.15 286.6,-97.87 290.73,-92.22"/>
</g>
<!-- &#45;9&#45;&gt;2 -->
<g id="edge34" class="edge">
<title>&#45;9&#45;&gt;2</title>
<path fill="none" stroke="green" stroke-width="0.41" d="M335.88,-133.16C332.93,-132.01 329.75,-130.87 326.75,-129.98 250.63,-107.38 226.13,-121.77 151.75,-93.98 150.85,-93.65 149.94,-93.28 149.03,-92.89"/>
<polygon fill="green" stroke="green" stroke-width="0.41" points="150.66,-89.79 140.16,-88.39 147.5,-96.03 150.66,-89.79"/>
</g>
<!-- &#45;9&#45;&gt;3 -->
<g id="edge35" class="edge">
<title>&#45;9&#45;&gt;3</title>
<path fill="none" stroke="red" stroke-width="0.11" d="M335.83,-133.31C332.89,-132.16 329.72,-130.98 326.75,-129.98 270.73,-111.15 253.34,-116.63 198.75,-93.98 197.73,-93.56 196.71,-93.11 195.68,-92.63"/>
<polygon fill="red" stroke="red" stroke-width="0.11" points="197.31,-89.53 186.83,-88.01 194.07,-95.74 197.31,-89.53"/>
</g>
<!-- &#45;9&#45;&gt;4 -->
<g id="edge36" class="edge">
<title>&#45;9&#45;&gt;4</title>
<path fill="none" stroke="green" stroke-width="0.12" d="M335.63,-133.45C316.34,-125.73 277.56,-109.78 245.75,-93.98 244.77,-93.49 243.76,-92.98 242.76,-92.46"/>
<polygon fill="green" stroke="green" stroke-width="0.12" points="244.44,-89.39 233.99,-87.69 241.1,-95.54 244.44,-89.39"/>
</g>
<!-- &#45;10 -->
<g id="node10" class="node">
<title>&#45;10</title>
<polygon fill="lightgray" stroke="black" points="405.75,-148.48 377.75,-148.48 377.75,-129.98 405.75,-129.98 405.75,-148.48"/>
<text text-anchor="middle" x="391.75" y="-135.93" font-family="Times New Roman,serif" font-size="9.00">&#45;10</text>
</g>
<!-- &#45;10&#45;&gt;1 -->
<g id="edge37" class="edge">
<title>&#45;10&#45;&gt;1</title>
<path fill="none" stroke="red" stroke-width="0.14" d="M377.64,-131.61C356.36,-121.62 315.87,-102.61 290.71,-90.8"/>
<polygon fill="red" stroke="red" stroke-width="0.14" points="292.31,-87.68 281.77,-86.6 289.34,-94.02 292.31,-87.68"/>
</g>
<!-- &#45;10&#45;&gt;2 -->
<g id="edge38" class="edge">
<title>&#45;10&#45;&gt;2</title>
<path fill="none" stroke="red" stroke-width="0.12" d="M377.27,-132.59C374.47,-131.63 371.54,-130.71 368.75,-129.98 274.13,-105.38 243.97,-126.43 151.75,-93.98 150.71,-93.62 149.67,-93.21 148.63,-92.77"/>
<polygon fill="red" stroke="red" stroke-width="0.12" points="150.24,-89.66 139.74,-88.29 147.09,-95.92 150.24,-89.66"/>
</g>
<!-- &#45;10&#45;&gt;3 -->
<g id="edge39" class="edge">
<title>&#45;10&#45;&gt;3</title>
<path fill="none" stroke="red" stroke-width="0.13" d="M377.74,-132.87C374.79,-131.83 371.69,-130.82 368.75,-129.98 294.45,-108.9 271.02,-121.22 198.75,-93.98 197.72,-93.59 196.68,-93.17 195.65,-92.71"/>
<polygon fill="red" stroke="red" stroke-width="0.13" points="197.29,-89.62 186.79,-88.19 194.11,-95.85 197.29,-89.62"/>
</g>
<!-- &#45;10&#45;&gt;4 -->
<g id="edge40" class="edge">
<title>&#45;10&#45;&gt;4</title>
<path fill="none" stroke="red" stroke-width="0.19" d="M377.69,-133.04C374.74,-131.99 371.65,-130.93 368.75,-129.98 314.58,-112.36 298.25,-116.08 245.75,-93.98 244.74,-93.56 243.71,-93.1 242.69,-92.62"/>
<polygon fill="red" stroke="red" stroke-width="0.19" points="244.43,-89.58 233.95,-88.04 241.19,-95.78 244.43,-89.58"/>
</g>
<!-- 1&#45;&gt;0 -->
<g id="edge41" class="edge">
<title>1&#45;&gt;0</title>
<path fill="none" stroke="green" stroke-width="0.54" d="M256.84,-70.51C241.38,-60.14 214.13,-41.88 195.29,-29.26"/>
<polygon fill="green" stroke="green" stroke-width="0.54" points="197.49,-26.52 187.23,-23.86 193.59,-32.34 197.49,-26.52"/>
</g>
<!-- 2&#45;&gt;0 -->
<g id="edge42" class="edge">
<title>2&#45;&gt;0</title>
<path fill="none" stroke="red" stroke-width="0.41" d="M136.15,-67.23C142.84,-58.27 152.35,-45.52 160.25,-34.93"/>
<polygon fill="red" stroke="red" stroke-width="0.41" points="162.88,-37.26 166.05,-27.15 157.27,-33.07 162.88,-37.26"/>
</g>
<!-- 3&#45;&gt;0 -->
<g id="edge43" class="edge">
<title>3&#45;&gt;0</title>
<path fill="none" stroke="red" stroke-width="0.5" d="M174.75,-64.51C174.75,-57.33 174.75,-48.37 174.75,-40.09"/>
<polygon fill="red" stroke="red" stroke-width="0.5" points="178.25,-40.19 174.75,-30.19 171.25,-40.19 178.25,-40.19"/>
</g>
<!-- 4&#45;&gt;0 -->
<g id="edge44" class="edge">
<title>4&#45;&gt;0</title>
<path fill="none" stroke="red" stroke-width="0.75" d="M213.35,-67.23C206.8,-58.45 197.53,-46.03 189.72,-35.56"/>
<polygon fill="red" stroke="red" stroke-width="0.75" points="192.54,-33.49 183.76,-27.57 186.93,-37.68 192.54,-33.49"/>
</g>
</g>
</svg>
