<?xml version="1.0" encoding="UTF-8" standalone="no"?>
<!DOCTYPE svg PUBLIC "-//W3C//DTD SVG 1.1//EN"
 "http://www.w3.org/Graphics/SVG/1.1/DTD/svg11.dtd">
<!-- Generated by graphviz version 12.1.2 (20240928.0832)
 -->
<!-- Pages: 1 -->
<svg width="598pt" height="91pt"
 viewBox="0.00 0.00 597.75 91.49" xmlns="http://www.w3.org/2000/svg" xmlns:xlink="http://www.w3.org/1999/xlink">
<g id="graph0" class="graph" transform="scale(1 1) rotate(0) translate(4 87.49)">
<polygon fill="white" stroke="none" points="-4,4 -4,-87.49 593.75,-87.49 593.75,4 -4,4"/>
<!-- &#45;1 -->
<g id="node1" class="node">
<title>&#45;1</title>
<polygon fill="lightgray" stroke="black" points="23.5,-83.49 0,-83.49 0,-64.99 23.5,-64.99 23.5,-83.49"/>
<text text-anchor="middle" x="11.75" y="-70.94" font-family="Times New Roman,serif" font-size="9.00">&#45;1</text>
</g>
<!-- &#45;2 -->
<g id="node2" class="node">
<title>&#45;2</title>
<polygon fill="lightgray" stroke="black" points="65.5,-83.49 42,-83.49 42,-64.99 65.5,-64.99 65.5,-83.49"/>
<text text-anchor="middle" x="53.75" y="-70.94" font-family="Times New Roman,serif" font-size="9.00">&#45;2</text>
</g>
<!-- 0 -->
<g id="node15" class="node">
<title>0</title>
<ellipse fill="lightblue" stroke="black" cx="179.75" cy="-14.5" rx="14.5" ry="14.5"/>
<text text-anchor="middle" x="179.75" y="-11.2" font-family="Times New Roman,serif" font-size="9.00">0</text>
</g>
<!-- &#45;2&#45;&gt;0 -->
<g id="edge1" class="edge">
<title>&#45;2&#45;&gt;0</title>
<path fill="none" stroke="red" stroke-width="0.4" d="M65.83,-67.7C86.91,-58.04 130.72,-37.97 157.44,-25.72"/>
<polygon fill="red" stroke="red" stroke-width="0.4" points="158.58,-29.05 166.22,-21.7 155.67,-22.68 158.58,-29.05"/>
</g>
<!-- &#45;3 -->
<g id="node3" class="node">
<title>&#45;3</title>
<polygon fill="lightgray" stroke="black" points="367.5,-83.49 344,-83.49 344,-64.99 367.5,-64.99 367.5,-83.49"/>
<text text-anchor="middle" x="355.75" y="-70.94" font-family="Times New Roman,serif" font-size="9.00">&#45;3</text>
</g>
<!-- &#45;4 -->
<g id="node4" class="node">
<title>&#45;4</title>
<polygon fill="lightgray" stroke="black" points="409.5,-83.49 386,-83.49 386,-64.99 409.5,-64.99 409.5,-83.49"/>
<text text-anchor="middle" x="397.75" y="-70.94" font-family="Times New Roman,serif" font-size="9.00">&#45;4</text>
</g>
<!-- &#45;5 -->
<g id="node5" class="node">
<title>&#45;5</title>
<polygon fill="lightgray" stroke="black" points="107.5,-83.49 84,-83.49 84,-64.99 107.5,-64.99 107.5,-83.49"/>
<text text-anchor="middle" x="95.75" y="-70.94" font-family="Times New Roman,serif" font-size="9.00">&#45;5</text>
</g>
<!-- &#45;5&#45;&gt;0 -->
<g id="edge7" class="edge">
<title>&#45;5&#45;&gt;0</title>
<path fill="none" stroke="red" stroke-width="0.19" d="M107.79,-64.97C121.34,-55.65 143.57,-40.37 159.74,-29.25"/>
<polygon fill="red" stroke="red" stroke-width="0.19" points="161.51,-32.28 167.77,-23.73 157.54,-26.52 161.51,-32.28"/>
</g>
<!-- &#45;6 -->
<g id="node6" class="node">
<title>&#45;6</title>
<polygon fill="lightgray" stroke="black" points="149.5,-83.49 126,-83.49 126,-64.99 149.5,-64.99 149.5,-83.49"/>
<text text-anchor="middle" x="137.75" y="-70.94" font-family="Times New Roman,serif" font-size="9.00">&#45;6</text>
</g>
<!-- &#45;6&#45;&gt;0 -->
<g id="edge6" class="edge">
<title>&#45;6&#45;&gt;0</title>
<path fill="none" stroke="green" stroke-width="0.25" d="M143.95,-64.72C149.59,-56.96 158.15,-45.2 165.48,-35.12"/>
<polygon fill="green" stroke="green" stroke-width="0.25" points="168.23,-37.28 171.28,-27.14 162.57,-33.17 168.23,-37.28"/>
</g>
<!-- &#45;7 -->
<g id="node7" class="node">
<title>&#45;7</title>
<polygon fill="lightgray" stroke="black" points="451.5,-83.49 428,-83.49 428,-64.99 451.5,-64.99 451.5,-83.49"/>
<text text-anchor="middle" x="439.75" y="-70.94" font-family="Times New Roman,serif" font-size="9.00">&#45;7</text>
</g>
<!-- &#45;8 -->
<g id="node8" class="node">
<title>&#45;8</title>
<polygon fill="lightgray" stroke="black" points="191.5,-83.49 168,-83.49 168,-64.99 191.5,-64.99 191.5,-83.49"/>
<text text-anchor="middle" x="179.75" y="-70.94" font-family="Times New Roman,serif" font-size="9.00">&#45;8</text>
</g>
<!-- &#45;8&#45;&gt;0 -->
<g id="edge2" class="edge">
<title>&#45;8&#45;&gt;0</title>
<path fill="none" stroke="green" stroke-width="0.6" d="M179.75,-64.72C179.75,-58.26 179.75,-49.04 179.75,-40.33"/>
<polygon fill="green" stroke="green" stroke-width="0.6" points="183.25,-40.33 179.75,-30.33 176.25,-40.33 183.25,-40.33"/>
</g>
<!-- &#45;9 -->
<g id="node9" class="node">
<title>&#45;9</title>
<polygon fill="lightgray" stroke="black" points="233.5,-83.49 210,-83.49 210,-64.99 233.5,-64.99 233.5,-83.49"/>
<text text-anchor="middle" x="221.75" y="-70.94" font-family="Times New Roman,serif" font-size="9.00">&#45;9</text>
</g>
<!-- &#45;9&#45;&gt;0 -->
<g id="edge3" class="edge">
<title>&#45;9&#45;&gt;0</title>
<path fill="none" stroke="green" stroke-width="0.14" d="M215.55,-64.72C209.85,-56.88 201.18,-44.96 193.8,-34.81"/>
<polygon fill="green" stroke="green" stroke-width="0.14" points="196.84,-33.04 188.13,-27.01 191.18,-37.16 196.84,-33.04"/>
</g>
<!-- &#45;10 -->
<g id="node10" class="node">
<title>&#45;10</title>
<polygon fill="lightgray" stroke="black" points="497.75,-83.49 469.75,-83.49 469.75,-64.99 497.75,-64.99 497.75,-83.49"/>
<text text-anchor="middle" x="483.75" y="-70.94" font-family="Times New Roman,serif" font-size="9.00">&#45;10</text>
</g>
<!-- &#45;11 -->
<g id="node11" class="node">
<title>&#45;11</title>
<polygon fill="lightgray" stroke="black" points="543.75,-83.49 515.75,-83.49 515.75,-64.99 543.75,-64.99 543.75,-83.49"/>
<text text-anchor="middle" x="529.75" y="-70.94" font-family="Times New Roman,serif" font-size="9.00">&#45;11</text>
</g>
<!-- &#45;12 -->
<g id="node12" class="node">
<title>&#45;12</title>
<polygon fill="lightgray" stroke="black" points="589.75,-83.49 561.75,-83.49 561.75,-64.99 589.75,-64.99 589.75,-83.49"/>
<text text-anchor="middle" x="575.75" y="-70.94" font-family="Times New Roman,serif" font-size="9.00">&#45;12</text>
</g>
<!-- &#45;13 -->
<g id="node13" class="node">
<title>&#45;13</title>
<polygon fill="lightgray" stroke="black" points="279.75,-83.49 251.75,-83.49 251.75,-64.99 279.75,-64.99 279.75,-83.49"/>
<text text-anchor="middle" x="265.75" y="-70.94" font-family="Times New Roman,serif" font-size="9.00">&#45;13</text>
</g>
<!-- &#45;13&#45;&gt;0 -->
<g id="edge5" class="edge">
<title>&#45;13&#45;&gt;0</title>
<path fill="none" stroke="green" stroke-width="0.54" d="M253.06,-64.72C239.23,-55.44 216.9,-40.44 200.51,-29.44"/>
<polygon fill="green" stroke="green" stroke-width="0.54" points="202.59,-26.62 192.34,-23.95 198.69,-32.43 202.59,-26.62"/>
</g>
<!-- &#45;14 -->
<g id="node14" class="node">
<title>&#45;14</title>
<polygon fill="lightgray" stroke="black" points="325.75,-83.49 297.75,-83.49 297.75,-64.99 325.75,-64.99 325.75,-83.49"/>
<text text-anchor="middle" x="311.75" y="-70.94" font-family="Times New Roman,serif" font-size="9.00">&#45;14</text>
</g>
<!-- &#45;14&#45;&gt;0 -->
<g id="edge4" class="edge">
<title>&#45;14&#45;&gt;0</title>
<path fill="none" stroke="red" stroke-width="0.36" d="M297.37,-66.95C274.5,-56.95 229.64,-37.32 202.42,-25.41"/>
<polygon fill="red" stroke="red" stroke-width="0.36" points="203.99,-22.28 193.43,-21.48 201.19,-28.69 203.99,-22.28"/>
</g>
</g>
</svg>
